<svg width="464" height="81" viewBox="0 0 464 81" fill="none" xmlns="http://www.w3.org/2000/svg">
<path fill-rule="evenodd" clip-rule="evenodd" d="M31.5538 0.162648C31.5538 0.260237 30.9032 0.325297 29.9273 0.325297C28.9514 0.325297 28.3008 0.390356 28.3008 0.487945C28.3008 0.577401 27.9348 0.650593 27.4876 0.650593C27.0403 0.650593 26.6743 0.723785 26.6743 0.813241C26.6743 0.902698 26.3816 0.97589 26.0237 0.97589C25.6659 0.97589 25.3731 1.04908 25.3731 1.13854C25.3731 1.22799 25.0804 1.30119 24.7225 1.30119C24.3647 1.30119 24.0719 1.37438 24.0719 1.46383C24.0719 1.55329 23.8524 1.62648 23.584 1.62648C23.3156 1.62648 23.0961 1.69967 23.0961 1.78913C23.0961 1.87859 22.8765 1.95178 22.6081 1.95178C22.3397 1.95178 22.1202 2.02497 22.1202 2.11443C22.1202 2.20388 21.9006 2.27708 21.6322 2.27708C21.3639 2.27708 21.1443 2.35027 21.1443 2.43972C21.1443 2.52918 20.9979 2.60237 20.819 2.60237C20.6401 2.60237 20.4937 2.67556 20.4937 2.76502C20.4937 2.85448 20.2741 2.92767 20.0057 2.92767C19.7374 2.92767 19.5178 3.00086 19.5178 3.09032C19.5178 3.17977 19.3714 3.25297 19.1925 3.25297C19.0136 3.25297 18.8672 3.32616 18.8672 3.41561C18.8672 3.50507 18.7208 3.57826 18.5419 3.57826C18.363 3.57826 18.2166 3.65145 18.2166 3.74091C18.2166 3.83037 18.0863 3.90356 17.9273 3.90356C17.768 3.90356 17.5323 4.04994 17.4034 4.22886C17.2744 4.40777 17.0387 4.55415 16.8795 4.55415C16.7204 4.55415 16.5901 4.62734 16.5901 4.7168C16.5901 4.80626 16.4437 4.87945 16.2648 4.87945C16.0859 4.87945 15.9395 4.95264 15.9395 5.0421C15.9395 5.13155 15.8093 5.20474 15.6502 5.20474C15.4909 5.20474 15.2553 5.35113 15.1263 5.53004C14.9973 5.70895 14.7909 5.85534 14.6676 5.85534C14.5445 5.85534 14.2384 6.07491 13.9878 6.34328C13.7371 6.61165 13.4458 6.83123 13.3404 6.83123C13.2352 6.83123 12.8678 7.12399 12.5239 7.48182C12.1801 7.83965 11.819 8.13241 11.7214 8.13241C11.4911 8.13241 8.45771 11.1637 8.45771 11.3938C8.45771 11.4903 8.09175 11.9255 7.64447 12.3613C7.19719 12.797 6.83123 13.2386 6.83123 13.3427C6.83123 13.4468 6.61165 13.7371 6.34328 13.9878C6.07491 14.2384 5.85534 14.5445 5.85534 14.6676C5.85534 14.7909 5.70895 14.9973 5.53004 15.1263C5.35113 15.2553 5.20474 15.4909 5.20474 15.6502C5.20474 15.8093 5.13155 15.9395 5.0421 15.9395C4.95264 15.9395 4.87945 16.0698 4.87945 16.2289C4.87945 16.3881 4.73306 16.6238 4.55415 16.7528C4.37524 16.8818 4.22886 17.1174 4.22886 17.2767C4.22886 17.4357 4.15566 17.566 4.06621 17.566C3.97675 17.566 3.90356 17.7124 3.90356 17.8913C3.90356 18.0702 3.83037 18.2166 3.74091 18.2166C3.65145 18.2166 3.57826 18.363 3.57826 18.5419C3.57826 18.7208 3.50507 18.8672 3.41561 18.8672C3.32616 18.8672 3.25297 19.0136 3.25297 19.1925C3.25297 19.3714 3.17977 19.5178 3.09032 19.5178C3.00086 19.5178 2.92767 19.6642 2.92767 19.8431C2.92767 20.022 2.85448 20.1684 2.76502 20.1684C2.67556 20.1684 2.60237 20.388 2.60237 20.6563C2.60237 20.9247 2.52918 21.1443 2.43972 21.1443C2.35027 21.1443 2.27708 21.2907 2.27708 21.4696C2.27708 21.6485 2.20388 21.7949 2.11443 21.7949C2.02497 21.7949 1.95178 22.0144 1.95178 22.2828C1.95178 22.5512 1.87859 22.7708 1.78913 22.7708C1.69967 22.7708 1.62648 22.9903 1.62648 23.2587C1.62648 23.5271 1.55329 23.7466 1.46383 23.7466C1.37438 23.7466 1.30119 23.9662 1.30119 24.2346C1.30119 24.503 1.22799 24.7225 1.13854 24.7225C1.04908 24.7225 0.97589 25.0153 0.97589 25.3731C0.97589 25.731 0.902698 26.0237 0.813241 26.0237C0.723785 26.0237 0.650593 26.3897 0.650593 26.837C0.650593 27.2842 0.577401 27.6502 0.487945 27.6502C0.393121 27.6502 0.325297 28.1923 0.325297 28.9514C0.325297 29.7105 0.257472 30.2526 0.162648 30.2526C0.059204 30.2526 0 31.5538 0 33.8308C0 36.1079 0.059204 37.4091 0.162648 37.4091C0.25552 37.4091 0.325297 37.897 0.325297 38.5476C0.325297 39.1982 0.395073 39.6862 0.487945 39.6862C0.577401 39.6862 0.650593 39.9789 0.650593 40.3368C0.650593 40.6946 0.723785 40.9874 0.813241 40.9874C0.902698 40.9874 0.97589 41.2801 0.97589 41.638C0.97589 41.9958 1.04908 42.2885 1.13854 42.2885C1.22799 42.2885 1.30119 42.5813 1.30119 42.9391C1.30119 43.297 1.37438 43.5897 1.46383 43.5897C1.55329 43.5897 1.62648 43.8093 1.62648 44.0777C1.62648 44.346 1.69967 44.5656 1.78913 44.5656C1.87859 44.5656 1.95178 44.7852 1.95178 45.0536C1.95178 45.3219 2.02497 45.5415 2.11443 45.5415C2.20388 45.5415 2.27708 45.6879 2.27708 45.8668C2.27708 46.0457 2.35027 46.1921 2.43972 46.1921C2.52918 46.1921 2.60237 46.3956 2.60237 46.6441C2.60237 46.9095 2.73672 47.1929 2.92767 47.3306C3.11862 47.4684 3.25297 47.7517 3.25297 48.0172C3.25297 48.2657 3.32616 48.4692 3.41561 48.4692C3.50507 48.4692 3.57826 48.6156 3.57826 48.7945C3.57826 48.9734 3.65145 49.1198 3.74091 49.1198C3.83037 49.1198 3.90356 49.2501 3.90356 49.4091C3.90356 49.5684 4.04994 49.804 4.22886 49.933C4.40777 50.062 4.55415 50.2977 4.55415 50.4569C4.55415 50.616 4.62734 50.7463 4.7168 50.7463C4.80626 50.7463 4.87945 50.8765 4.87945 51.0356C4.87945 51.1948 5.02583 51.4305 5.20474 51.5595C5.38366 51.6885 5.53004 51.9081 5.53004 52.0474C5.53004 52.1868 5.67642 52.4064 5.85534 52.5354C6.03425 52.6644 6.18063 52.8839 6.18063 53.0233C6.18063 53.1627 6.32702 53.3823 6.50593 53.5113C6.68484 53.6403 6.83123 53.8441 6.83123 53.9644C6.83123 54.0846 7.19719 54.5394 7.64447 54.9751C8.09175 55.4108 8.45771 55.8456 8.45771 55.9412C8.45771 56.037 13.5811 61.2381 19.8431 67.499C26.105 73.76 31.2285 78.9929 31.2285 79.1276C31.2285 79.2639 31.3726 79.3724 31.5538 79.3724C31.7387 79.3724 31.8791 79.4808 31.8791 79.6236C31.8791 79.9491 32.6035 80.6735 32.929 80.6735C33.0672 80.6735 33.1802 80.7467 33.1802 80.8362C33.1802 81.1238 33.7513 81.0096 33.9935 80.6735C34.1225 80.4946 34.3581 80.3482 34.5174 80.3482C34.6764 80.3482 34.8067 80.2333 34.8067 80.0927C34.8067 79.764 35.1984 79.3724 35.5271 79.3724C35.6676 79.3724 35.7826 79.2622 35.7826 79.1276C35.7826 78.9929 40.906 73.76 47.168 67.499C53.43 61.2381 58.5534 56.0346 58.5534 55.9359C58.5534 55.837 58.773 55.551 59.0413 55.3004C59.3097 55.0498 59.5293 54.759 59.5293 54.6542C59.5293 54.3958 59.1148 53.9992 58.8448 53.9992C58.724 53.9992 58.5197 53.8528 58.3907 53.6739C58.2618 53.495 58.0261 53.3486 57.8668 53.3486C57.7078 53.3486 57.5775 53.2754 57.5775 53.186C57.5775 53.0965 57.4311 53.0233 57.2522 53.0233C57.0733 53.0233 56.9269 52.9501 56.9269 52.8607C56.9269 52.7712 56.7805 52.698 56.6016 52.698C56.4227 52.698 56.2763 52.6248 56.2763 52.5354C56.2763 52.4459 56.146 52.3727 55.987 52.3727C55.8277 52.3727 55.592 52.2264 55.4631 52.0474C55.3341 51.8685 55.0984 51.7221 54.9392 51.7221C54.7801 51.7221 54.6498 51.649 54.6498 51.5595C54.6498 51.47 54.5195 51.3969 54.3605 51.3969C54.2012 51.3969 53.9656 51.2505 53.8366 51.0716C53.7076 50.8926 53.4719 50.7463 53.3127 50.7463C53.1536 50.7463 53.0233 50.6731 53.0233 50.5836C53.0233 50.4942 52.877 50.421 52.698 50.421C52.5191 50.421 52.3727 50.3478 52.3727 50.2583C52.3727 50.1689 52.2264 50.0957 52.0474 50.0957C51.8685 50.0957 51.7222 50.0225 51.7222 49.933C51.7222 49.8436 51.5919 49.7704 51.4328 49.7704C51.2736 49.7704 51.0379 49.624 50.9089 49.4451C50.7799 49.2662 50.5442 49.1198 50.385 49.1198C50.2259 49.1198 50.0957 49.0466 50.0957 48.9571C50.0957 48.8677 49.9654 48.7945 49.8063 48.7945C49.6471 48.7945 49.4114 48.6481 49.2824 48.4692C49.1534 48.2903 48.9178 48.1439 48.7585 48.1439C48.5995 48.1439 48.4692 48.0707 48.4692 47.9812C48.4692 47.8918 48.3389 47.8186 48.1798 47.8186C48.0206 47.8186 47.7849 47.6722 47.6559 47.4933C47.3165 47.0224 47.0576 47.0872 46.3548 47.8186C46.0109 48.1764 45.6435 48.4692 45.5383 48.4692C45.4329 48.4692 45.1416 48.6888 44.8909 48.9571C44.6403 49.2255 44.3342 49.4451 44.2111 49.4451C44.0878 49.4451 43.8814 49.5915 43.7524 49.7704C43.6234 49.9493 43.3877 50.0957 43.2285 50.0957C43.0694 50.0957 42.9391 50.1689 42.9391 50.2583C42.9391 50.3478 42.7928 50.421 42.6138 50.421C42.4349 50.421 42.2885 50.4942 42.2885 50.5836C42.2885 50.6731 42.1422 50.7463 41.9633 50.7463C41.7843 50.7463 41.638 50.8194 41.638 50.9089C41.638 50.9984 41.4916 51.0716 41.3127 51.0716C41.1337 51.0716 40.9874 51.1447 40.9874 51.2342C40.9874 51.3237 40.7678 51.3969 40.4994 51.3969C40.231 51.3969 40.0115 51.47 40.0115 51.5595C40.0115 51.649 39.8651 51.7221 39.6862 51.7221C39.5073 51.7221 39.3609 51.7953 39.3609 51.8848C39.3609 51.9743 39.0681 52.0474 38.7103 52.0474C38.3525 52.0474 38.0597 52.1206 38.0597 52.2101C38.0597 52.2995 37.7669 52.3727 37.4091 52.3727C37.0513 52.3727 36.7585 52.4459 36.7585 52.5354C36.7585 52.6383 35.5658 52.698 33.5055 52.698C31.4453 52.698 30.2526 52.6383 30.2526 52.5354C30.2526 52.4459 29.9598 52.3727 29.602 52.3727C29.2442 52.3727 28.9514 52.2995 28.9514 52.2101C28.9514 52.1206 28.6586 52.0474 28.3008 52.0474C27.943 52.0474 27.6502 51.9743 27.6502 51.8848C27.6502 51.7953 27.4306 51.7221 27.1623 51.7221C26.8939 51.7221 26.6743 51.649 26.6743 51.5595C26.6743 51.47 26.5279 51.3969 26.349 51.3969C26.1701 51.3969 26.0237 51.3237 26.0237 51.2342C26.0237 51.1447 25.8773 51.0716 25.6984 51.0716C25.5195 51.0716 25.3731 50.9984 25.3731 50.9089C25.3731 50.8194 25.2267 50.7463 25.0478 50.7463C24.8689 50.7463 24.7225 50.6731 24.7225 50.5836C24.7225 50.4942 24.5762 50.421 24.3972 50.421C24.2183 50.421 24.0719 50.3478 24.0719 50.2583C24.0719 50.1689 23.9417 50.0957 23.7826 50.0957C23.6234 50.0957 23.3877 49.9493 23.2587 49.7704C23.1297 49.5915 22.9233 49.4451 22.8 49.4451C22.6769 49.4451 22.3708 49.2255 22.1202 48.9571C21.8695 48.6888 21.5829 48.4692 21.4834 48.4692C21.2471 48.4692 18.5419 45.764 18.5419 45.5277C18.5419 45.4281 18.3223 45.1416 18.054 44.8909C17.7856 44.6403 17.566 44.3342 17.566 44.2111C17.566 44.0878 17.4196 43.8814 17.2407 43.7524C17.0618 43.6234 16.9154 43.3877 16.9154 43.2285C16.9154 43.0694 16.8422 42.9391 16.7528 42.9391C16.6633 42.9391 16.5901 42.7928 16.5901 42.6138C16.5901 42.4349 16.5169 42.2885 16.4275 42.2885C16.338 42.2885 16.2648 42.1422 16.2648 41.9633C16.2648 41.7843 16.1916 41.638 16.1022 41.638C16.0127 41.638 15.9395 41.4916 15.9395 41.3127C15.9395 41.1337 15.8663 40.9874 15.7769 40.9874C15.6874 40.9874 15.6142 40.7678 15.6142 40.4994C15.6142 40.231 15.541 40.0115 15.4516 40.0115C15.3621 40.0115 15.2889 39.7919 15.2889 39.5235C15.2889 39.2552 15.2157 39.0356 15.1263 39.0356C15.0368 39.0356 14.9636 38.816 14.9636 38.5476C14.9636 38.2793 14.8904 38.0597 14.801 38.0597C14.7106 38.0597 14.6383 37.6259 14.6383 37.0838C14.6383 36.5417 14.5661 36.1079 14.4757 36.1079C14.3745 36.1079 14.313 35.1862 14.313 33.6682C14.313 32.1502 14.3745 31.2285 14.4757 31.2285C14.5652 31.2285 14.6383 30.8625 14.6383 30.4152C14.6383 29.9679 14.7115 29.602 14.801 29.602C14.8904 29.602 14.9636 29.3092 14.9636 28.9514C14.9636 28.5936 15.0368 28.3008 15.1263 28.3008C15.2157 28.3008 15.2889 28.0812 15.2889 27.8129C15.2889 27.5445 15.3621 27.3249 15.4516 27.3249C15.541 27.3249 15.6142 27.1053 15.6142 26.837C15.6142 26.5686 15.6874 26.349 15.7769 26.349C15.8663 26.349 15.9395 26.2026 15.9395 26.0237C15.9395 25.8448 16.0127 25.6984 16.1022 25.6984C16.1916 25.6984 16.2648 25.552 16.2648 25.3731C16.2648 25.1942 16.338 25.0478 16.4275 25.0478C16.5169 25.0478 16.5901 24.9014 16.5901 24.7225C16.5901 24.5436 16.6633 24.3972 16.7528 24.3972C16.8422 24.3972 16.9154 24.2509 16.9154 24.0719C16.9154 23.893 16.9886 23.7466 17.0781 23.7466C17.1675 23.7466 17.2407 23.6297 17.2407 23.4866C17.2407 23.3436 17.4603 23.0214 17.7287 22.7708C17.997 22.5201 18.2166 22.2337 18.2166 22.1345C18.2166 21.8807 21.9082 18.2166 22.1639 18.2166C22.2792 18.2166 22.4791 18.0702 22.6081 17.8913C22.7371 17.7124 22.9567 17.566 23.0961 17.566C23.2354 17.566 23.455 17.4196 23.584 17.2407C23.713 17.0618 23.9487 16.9154 24.1079 16.9154C24.267 16.9154 24.3972 16.8422 24.3972 16.7528C24.3972 16.6633 24.5436 16.5901 24.7225 16.5901C24.9015 16.5901 25.0478 16.5169 25.0478 16.4275C25.0478 16.338 25.1942 16.2648 25.3731 16.2648C25.552 16.2648 25.6984 16.1916 25.6984 16.1022C25.6984 16.0127 25.918 15.9395 26.1864 15.9395C26.4547 15.9395 26.6743 15.8663 26.6743 15.7769C26.6743 15.6874 26.8939 15.6142 27.1623 15.6142C27.4306 15.6142 27.6502 15.541 27.6502 15.4516C27.6502 15.3621 27.8698 15.2889 28.1382 15.2889C28.4065 15.2889 28.6261 15.2157 28.6261 15.1263C28.6261 15.0368 28.9189 14.9636 29.2767 14.9636C29.6345 14.9636 29.9273 14.8904 29.9273 14.801C29.9273 14.6975 31.2285 14.6383 33.5055 14.6383C35.7826 14.6383 37.0838 14.6975 37.0838 14.801C37.0838 14.8904 37.3766 14.9636 37.7344 14.9636C38.0922 14.9636 38.385 15.0368 38.385 15.1263C38.385 15.2157 38.6046 15.2889 38.8729 15.2889C39.1413 15.2889 39.3609 15.3621 39.3609 15.4516C39.3609 15.541 39.5805 15.6142 39.8488 15.6142C40.1172 15.6142 40.3368 15.6874 40.3368 15.7769C40.3368 15.8663 40.5563 15.9395 40.8247 15.9395C41.0931 15.9395 41.3127 16.0127 41.3127 16.1022C41.3127 16.1916 41.459 16.2648 41.638 16.2648C41.8169 16.2648 41.9633 16.338 41.9633 16.4275C41.9633 16.5169 42.1096 16.5901 42.2885 16.5901C42.4675 16.5901 42.6138 16.6633 42.6138 16.7528C42.6138 16.8422 42.7441 16.9154 42.9032 16.9154C43.0624 16.9154 43.2981 17.0618 43.4271 17.2407C43.5561 17.4196 43.7756 17.566 43.915 17.566C44.0544 17.566 44.274 17.7124 44.403 17.8913C44.532 18.0702 44.7319 18.2166 44.8472 18.2166C45.1029 18.2166 48.7945 21.8807 48.7945 22.1345C48.7945 22.2337 49.0141 22.5201 49.2824 22.7708C49.5508 23.0214 49.7704 23.3436 49.7704 23.4866C49.7704 23.6297 49.8436 23.7466 49.933 23.7466C50.0225 23.7466 50.0957 23.893 50.0957 24.0719C50.0957 24.2509 50.1689 24.3972 50.2583 24.3972C50.3478 24.3972 50.421 24.5436 50.421 24.7225C50.421 24.9014 50.4942 25.0478 50.5836 25.0478C50.6731 25.0478 50.7463 25.1942 50.7463 25.3731C50.7463 25.552 50.8195 25.6984 50.9089 25.6984C50.9984 25.6984 51.0716 25.8448 51.0716 26.0237C51.0716 26.2026 51.1448 26.349 51.2342 26.349C51.3237 26.349 51.3969 26.5686 51.3969 26.837C51.3969 27.1053 51.47 27.3249 51.5595 27.3249C51.649 27.3249 51.7222 27.5445 51.7222 27.8129C51.7222 28.0812 51.7953 28.3008 51.8848 28.3008C51.9743 28.3008 52.0474 28.5936 52.0474 28.9514C52.0474 29.3092 52.1206 29.602 52.2101 29.602C52.2996 29.602 52.3727 29.9679 52.3727 30.4152C52.3727 30.8625 52.4459 31.2285 52.5354 31.2285C52.6361 31.2285 52.698 32.0959 52.698 33.5055C52.698 34.9152 52.6361 35.7826 52.5354 35.7826C52.445 35.7826 52.3727 36.2164 52.3727 36.7585C52.3727 37.3006 52.3005 37.7344 52.2101 37.7344C52.1206 37.7344 52.0474 38.0272 52.0474 38.385C52.0474 38.9271 52.1016 39.0356 52.3727 39.0356C52.5517 39.0356 52.698 39.1088 52.698 39.1982C52.698 39.2877 52.8283 39.3609 52.9874 39.3609C53.1466 39.3609 53.3823 39.5073 53.5113 39.6862C53.6403 39.8651 53.8759 40.0115 54.0352 40.0115C54.1942 40.0115 54.3245 40.0847 54.3245 40.1741C54.3245 40.2636 54.4548 40.3368 54.6139 40.3368C54.7731 40.3368 55.0088 40.4832 55.1378 40.6621C55.2667 40.841 55.5024 40.9874 55.6617 40.9874C55.8207 40.9874 55.951 41.0606 55.951 41.15C55.951 41.2395 56.0813 41.3127 56.2404 41.3127C56.3996 41.3127 56.6353 41.459 56.7642 41.638C56.8932 41.8169 57.1289 41.9633 57.2881 41.9633C57.4472 41.9633 57.5775 42.0364 57.5775 42.1259C57.5775 42.2154 57.7239 42.2885 57.9028 42.2885C58.0817 42.2885 58.2281 42.3617 58.2281 42.4512C58.2281 42.5407 58.3745 42.6138 58.5534 42.6138C58.7323 42.6138 58.8787 42.687 58.8787 42.7765C58.8787 42.866 59.0251 42.9391 59.204 42.9391C59.3829 42.9391 59.5293 43.0123 59.5293 43.1018C59.5293 43.1912 59.6595 43.2644 59.8186 43.2644C59.9779 43.2644 60.2135 43.4108 60.3425 43.5897C60.4715 43.7686 60.6911 43.915 60.8305 43.915C60.9698 43.915 61.1894 44.0614 61.3184 44.2403C61.4474 44.4192 61.6831 44.5656 61.8423 44.5656C62.0014 44.5656 62.1316 44.6388 62.1316 44.7283C62.1316 44.8177 62.278 44.8909 62.4569 44.8909C62.6358 44.8909 62.7822 44.9641 62.7822 45.0536C62.7822 45.143 62.9125 45.2162 63.0716 45.2162C63.2308 45.2162 63.4665 45.3626 63.5955 45.5415C63.7245 45.7204 63.9601 45.8668 64.1194 45.8668C64.2784 45.8668 64.4087 45.94 64.4087 46.0295C64.4087 46.1189 64.4819 46.1921 64.5714 46.1921C64.6608 46.1921 64.734 46.0457 64.734 45.8668C64.734 45.6879 64.8072 45.5415 64.8967 45.5415C64.9861 45.5415 65.0593 45.3219 65.0593 45.0536C65.0593 44.7852 65.1325 44.5656 65.222 44.5656C65.3114 44.5656 65.3846 44.346 65.3846 44.0777C65.3846 43.8093 65.4578 43.5897 65.5473 43.5897C65.6367 43.5897 65.7099 43.297 65.7099 42.9391C65.7099 42.5813 65.7831 42.2885 65.8726 42.2885C65.962 42.2885 66.0352 41.9958 66.0352 41.638C66.0352 41.2801 66.1084 40.9874 66.1978 40.9874C66.2873 40.9874 66.3605 40.6214 66.3605 40.1741C66.3605 39.7268 66.4337 39.3609 66.5231 39.3609C66.616 39.3609 66.6858 38.8729 66.6858 38.2223C66.6858 37.5717 66.7556 37.0838 66.8484 37.0838C66.9517 37.0838 67.0111 35.8368 67.0111 33.6682C67.0111 31.4996 66.9517 30.2526 66.8484 30.2526C66.7536 30.2526 66.6858 29.7105 66.6858 28.9514C66.6858 28.1923 66.618 27.6502 66.5231 27.6502C66.4337 27.6502 66.3605 27.2842 66.3605 26.837C66.3605 26.3897 66.2873 26.0237 66.1978 26.0237C66.1084 26.0237 66.0352 25.731 66.0352 25.3731C66.0352 25.0153 65.962 24.7225 65.8726 24.7225C65.7831 24.7225 65.7099 24.503 65.7099 24.2346C65.7099 23.9662 65.6367 23.7466 65.5473 23.7466C65.4578 23.7466 65.3846 23.5271 65.3846 23.2587C65.3846 22.9903 65.3114 22.7708 65.222 22.7708C65.1325 22.7708 65.0593 22.5512 65.0593 22.2828C65.0593 22.0144 64.9861 21.7949 64.8967 21.7949C64.8072 21.7949 64.734 21.6485 64.734 21.4696C64.734 21.2907 64.6608 21.1443 64.5714 21.1443C64.4819 21.1443 64.4087 20.9247 64.4087 20.6563C64.4087 20.388 64.3355 20.1684 64.2461 20.1684C64.1566 20.1684 64.0834 20.022 64.0834 19.8431C64.0834 19.6642 64.0102 19.5178 63.9208 19.5178C63.8313 19.5178 63.7581 19.3714 63.7581 19.1925C63.7581 19.0136 63.6849 18.8672 63.5955 18.8672C63.506 18.8672 63.4328 18.7208 63.4328 18.5419C63.4328 18.363 63.3596 18.2166 63.2702 18.2166C63.1807 18.2166 63.1075 18.0702 63.1075 17.8913C63.1075 17.7124 63.0343 17.566 62.9449 17.566C62.8554 17.566 62.7822 17.4357 62.7822 17.2767C62.7822 17.1174 62.6358 16.8818 62.4569 16.7528C62.278 16.6238 62.1316 16.3881 62.1316 16.2289C62.1316 16.0698 62.0584 15.9395 61.969 15.9395C61.8795 15.9395 61.8063 15.8093 61.8063 15.6502C61.8063 15.4909 61.66 15.2553 61.481 15.1263C61.3021 14.9973 61.1558 14.7909 61.1558 14.6676C61.1558 14.5445 60.9362 14.2384 60.6678 13.9878C60.3994 13.7371 60.1799 13.4468 60.1799 13.3427C60.1799 13.2386 59.8139 12.797 59.3666 12.3613C58.9193 11.9255 58.5534 11.4903 58.5534 11.3938C58.5534 11.1637 55.52 8.13241 55.2897 8.13241C55.1921 8.13241 54.831 7.83965 54.4872 7.48182C54.1433 7.12399 53.7627 6.83123 53.6412 6.83123C53.5197 6.83123 53.315 6.68484 53.186 6.50593C53.057 6.32702 52.8506 6.18063 52.7273 6.18063C52.6042 6.18063 52.2981 5.96106 52.0474 5.69269C51.7968 5.42432 51.4746 5.20474 51.3316 5.20474C51.1885 5.20474 51.0716 5.13155 51.0716 5.0421C51.0716 4.95264 50.9252 4.87945 50.7463 4.87945C50.5673 4.87945 50.421 4.80626 50.421 4.7168C50.421 4.62734 50.2907 4.55415 50.1316 4.55415C49.9724 4.55415 49.7367 4.40777 49.6077 4.22886C49.47 4.03791 49.1866 3.90356 48.9212 3.90356C48.6727 3.90356 48.4692 3.83037 48.4692 3.74091C48.4692 3.65145 48.3228 3.57826 48.1439 3.57826C47.965 3.57826 47.8186 3.50507 47.8186 3.41561C47.8186 3.32616 47.6722 3.25297 47.4933 3.25297C47.3144 3.25297 47.168 3.17977 47.168 3.09032C47.168 3.00086 47.0216 2.92767 46.8427 2.92767C46.6638 2.92767 46.5174 2.85448 46.5174 2.76502C46.5174 2.67556 46.371 2.60237 46.1921 2.60237C46.0132 2.60237 45.8668 2.52918 45.8668 2.43972C45.8668 2.35027 45.6472 2.27708 45.3789 2.27708C45.1105 2.27708 44.8909 2.20388 44.8909 2.11443C44.8909 2.02497 44.6713 1.95178 44.403 1.95178C44.1346 1.95178 43.915 1.87859 43.915 1.78913C43.915 1.69967 43.6955 1.62648 43.4271 1.62648C43.1587 1.62648 42.9391 1.55329 42.9391 1.46383C42.9391 1.37438 42.6464 1.30119 42.2885 1.30119C41.9307 1.30119 41.638 1.22799 41.638 1.13854C41.638 1.04908 41.3452 0.97589 40.9874 0.97589C40.6295 0.97589 40.3368 0.902698 40.3368 0.813241C40.3368 0.723785 39.9708 0.650593 39.5235 0.650593C39.0762 0.650593 38.7103 0.577401 38.7103 0.487945C38.7103 0.390356 38.0597 0.325297 37.0838 0.325297C36.1079 0.325297 35.4573 0.260237 35.4573 0.162648C35.4573 0.0632702 34.6982 0 33.5055 0C32.3128 0 31.5538 0.0632702 31.5538 0.162648Z" fill="black"/>
<circle cx="34.8158" cy="33.3946" r="9.94737" fill="#FF8A00"/>
<path d="M48.7606 39.3211L47.0555 39.7627L46.3002 39.3365C47.8311 36.2315 48.1944 32.6796 47.324 29.329C46.6053 26.5542 45.0799 24.055 42.9408 22.1471C40.8017 20.2393 38.1448 19.0087 35.3063 18.6108C32.4677 18.213 29.5749 18.6658 26.9937 19.912C24.4125 21.1583 22.2588 23.1419 20.805 25.6121C19.3512 28.0824 18.6625 30.9282 18.8261 33.7899C18.9897 36.6515 19.9981 39.4004 21.724 41.6888C23.4498 43.9773 25.8155 45.7026 28.5219 46.6466C31.2283 47.5906 34.1538 47.7108 36.9286 46.9921C40.4035 46.092 43.268 43.9912 45.1807 41.2387L45.92 41.6921L46.3616 43.3972L59.9431 51.3721L62.326 47.3232L48.7606 39.3211V39.3211ZM35.8105 42.6754C30.4362 44.0675 24.9742 40.8529 23.5821 35.4786C22.1901 30.1043 25.4047 24.6423 30.779 23.2502C36.1533 21.8582 41.6153 25.0728 43.0073 30.4471C44.3994 35.8214 41.1848 41.2834 35.8105 42.6754Z" fill="#FF8A00"/>
<path d="M126.29 28.8051C126.042 26.5986 125.016 24.8894 123.214 23.6774C121.411 22.4498 119.142 21.8361 116.408 21.8361C114.45 21.8361 112.756 22.1468 111.327 22.7684C109.897 23.3744 108.786 24.2135 107.994 25.2856C107.217 26.3423 106.828 27.5465 106.828 28.8984C106.828 30.0327 107.092 31.0116 107.621 31.8351C108.164 32.6587 108.871 33.3502 109.742 33.9095C110.627 34.4534 111.575 34.9118 112.585 35.2847C113.595 35.6421 114.566 35.9373 115.499 36.1704L120.16 37.3824C121.683 37.7553 123.245 38.2603 124.845 38.8974C126.446 39.5345 127.93 40.3736 129.297 41.4147C130.664 42.4558 131.768 43.7455 132.607 45.2838C133.461 46.8221 133.889 48.6634 133.889 50.8077C133.889 53.5115 133.189 55.9122 131.791 58.0099C130.408 60.1076 128.396 61.7624 125.754 62.9745C123.128 64.1865 119.951 64.7925 116.221 64.7925C112.647 64.7925 109.555 64.2253 106.945 63.091C104.334 61.9567 102.291 60.3484 100.815 58.2663C99.3386 56.1686 98.5228 53.6824 98.3674 50.8077H105.593C105.733 52.5325 106.292 53.9698 107.271 55.1197C108.265 56.254 109.532 57.1009 111.07 57.6603C112.624 58.2041 114.326 58.476 116.175 58.476C118.21 58.476 120.02 58.1575 121.605 57.5204C123.206 56.8678 124.464 55.9666 125.381 54.8167C126.298 53.6513 126.756 52.2917 126.756 50.7378C126.756 49.3238 126.352 48.1662 125.544 47.265C124.752 46.3637 123.672 45.6179 122.305 45.0274C120.953 44.4369 119.422 43.9164 117.713 43.4658L112.072 41.9275C108.25 40.8864 105.22 39.3558 102.982 37.3358C100.76 35.3158 99.6494 32.6432 99.6494 29.3179C99.6494 26.5676 100.395 24.1669 101.887 22.1158C103.379 20.0647 105.399 18.472 107.947 17.3377C110.495 16.1878 113.37 15.6129 116.571 15.6129C119.803 15.6129 122.654 16.18 125.125 17.3143C127.611 18.4487 129.569 20.0103 130.998 21.9992C132.428 23.9726 133.174 26.2413 133.236 28.8051H126.29ZM157.365 64.7225C153.838 64.7225 150.8 63.9689 148.252 62.4617C145.719 60.9389 143.761 58.8023 142.378 56.052C141.011 53.2862 140.327 50.0464 140.327 46.3326C140.327 42.6655 141.011 39.4335 142.378 36.6366C143.761 33.8396 145.688 31.6565 148.159 30.0871C150.645 28.5177 153.551 27.733 156.876 27.733C158.896 27.733 160.854 28.067 162.75 28.7352C164.645 29.4034 166.347 30.4522 167.854 31.8818C169.361 33.3113 170.55 35.1682 171.42 37.4523C172.29 39.721 172.725 42.4791 172.725 45.7266V48.1973H144.266V42.9763H165.896C165.896 41.1428 165.523 39.519 164.777 38.105C164.032 36.6754 162.983 35.5489 161.631 34.7253C160.294 33.9018 158.725 33.49 156.923 33.49C154.965 33.49 153.255 33.9717 151.795 34.9351C150.35 35.8829 149.231 37.126 148.439 38.6643C147.662 40.1871 147.273 41.842 147.273 43.6289V47.7078C147.273 50.1007 147.693 52.1363 148.532 53.8145C149.386 55.4926 150.575 56.7746 152.098 57.6603C153.621 58.5304 155.4 58.9655 157.435 58.9655C158.756 58.9655 159.96 58.779 161.048 58.4061C162.136 58.0176 163.076 57.4427 163.868 56.6813C164.661 55.9199 165.267 54.9799 165.686 53.8611L172.282 55.0498C171.754 56.9921 170.806 58.6936 169.439 60.1542C168.087 61.5993 166.386 62.7258 164.335 63.5338C162.299 64.3263 159.976 64.7225 157.365 64.7225ZM195.888 64.7225C192.36 64.7225 189.322 63.9689 186.774 62.4617C184.241 60.9389 182.283 58.8023 180.901 56.052C179.533 53.2862 178.849 50.0464 178.849 46.3326C178.849 42.6655 179.533 39.4335 180.901 36.6366C182.283 33.8396 184.21 31.6565 186.681 30.0871C189.167 28.5177 192.073 27.733 195.398 27.733C197.418 27.733 199.376 28.067 201.272 28.7352C203.167 29.4034 204.869 30.4522 206.376 31.8818C207.883 33.3113 209.072 35.1682 209.942 37.4523C210.812 39.721 211.247 42.4791 211.247 45.7266V48.1973H182.789V42.9763H204.418C204.418 41.1428 204.045 39.519 203.299 38.105C202.554 36.6754 201.505 35.5489 200.153 34.7253C198.817 33.9018 197.247 33.49 195.445 33.49C193.487 33.49 191.778 33.9717 190.317 34.9351C188.872 35.8829 187.753 37.126 186.961 38.6643C186.184 40.1871 185.795 41.842 185.795 43.6289V47.7078C185.795 50.1007 186.215 52.1363 187.054 53.8145C187.908 55.4926 189.097 56.7746 190.62 57.6603C192.143 58.5304 193.922 58.9655 195.957 58.9655C197.278 58.9655 198.482 58.779 199.57 58.4061C200.658 58.0176 201.598 57.4427 202.39 56.6813C203.183 55.9199 203.789 54.9799 204.208 53.8611L210.805 55.0498C210.276 56.9921 209.328 58.6936 207.961 60.1542C206.609 61.5993 204.908 62.7258 202.857 63.5338C200.821 64.3263 198.498 64.7225 195.888 64.7225ZM225.389 51.8566L225.343 43.3492H226.555L240.819 28.1991H249.163L232.895 45.4469H231.799L225.389 51.8566ZM218.98 64V16.2655H225.949V64H218.98ZM241.588 64L228.769 46.9853L233.571 42.1139L250.142 64H241.588ZM295.721 31.7885H288.449C288.169 30.2347 287.649 28.8673 286.887 27.6863C286.126 26.5054 285.194 25.5032 284.09 24.6796C282.987 23.8561 281.752 23.2345 280.384 22.815C279.033 22.3955 277.595 22.1857 276.072 22.1857C273.322 22.1857 270.859 22.8772 268.684 24.2601C266.524 25.643 264.815 27.6708 263.556 30.3434C262.313 33.0161 261.691 36.2792 261.691 40.1327C261.691 44.0174 262.313 47.296 263.556 49.9687C264.815 52.6413 266.532 54.6613 268.707 56.0287C270.883 57.3961 273.33 58.0798 276.049 58.0798C277.556 58.0798 278.986 57.8778 280.338 57.4738C281.705 57.0543 282.94 56.4405 284.044 55.6325C285.147 54.8245 286.079 53.8378 286.841 52.6724C287.618 51.4914 288.154 50.1396 288.449 48.6168L295.721 48.6401C295.332 50.9864 294.579 53.1463 293.46 55.1197C292.357 57.0776 290.935 58.7713 289.195 60.2008C287.47 61.6148 285.497 62.7103 283.275 63.4872C281.053 64.2642 278.629 64.6526 276.002 64.6526C271.869 64.6526 268.187 63.6737 264.955 61.7158C261.723 59.7424 259.174 56.9222 257.31 53.2551C255.46 49.588 254.536 45.2139 254.536 40.1327C254.536 35.0361 255.468 30.662 257.333 27.0104C259.198 23.3433 261.746 20.5308 264.978 18.573C268.21 16.5996 271.885 15.6129 276.002 15.6129C278.535 15.6129 280.897 15.978 283.088 16.7083C285.295 17.4231 287.276 18.4797 289.032 19.8782C290.787 21.2611 292.24 22.9548 293.39 24.9593C294.54 26.9483 295.317 29.2247 295.721 31.7885ZM314.198 64.7925C311.93 64.7925 309.879 64.3729 308.045 63.5338C306.211 62.6792 304.759 61.4439 303.686 59.8279C302.63 58.2119 302.101 56.2307 302.101 53.8844C302.101 51.8644 302.49 50.2017 303.267 48.8965C304.044 47.5913 305.093 46.5579 306.413 45.7966C307.734 45.0352 309.21 44.4602 310.842 44.0718C312.473 43.6833 314.136 43.3881 315.83 43.1861C317.974 42.9375 319.714 42.7355 321.051 42.5801C322.387 42.4091 323.358 42.1372 323.964 41.7643C324.57 41.3914 324.873 40.7854 324.873 39.9463V39.7831C324.873 37.7476 324.298 36.1704 323.148 35.0516C322.014 33.9329 320.32 33.3735 318.067 33.3735C315.721 33.3735 313.872 33.894 312.52 34.9351C311.184 35.9606 310.259 37.1027 309.746 38.3613L303.197 36.8696C303.974 34.6942 305.108 32.9384 306.6 31.6021C308.107 30.2502 309.84 29.2713 311.798 28.6653C313.755 28.0437 315.814 27.733 317.974 27.733C319.404 27.733 320.919 27.9039 322.519 28.2457C324.135 28.572 325.642 29.178 327.041 30.0637C328.455 30.9494 329.613 32.2158 330.514 33.8629C331.415 35.4945 331.866 37.6155 331.866 40.226V64H325.06V59.1053H324.78C324.329 60.0066 323.653 60.8923 322.752 61.7624C321.851 62.6326 320.693 63.3551 319.279 63.9301C317.865 64.505 316.172 64.7925 314.198 64.7925ZM315.713 59.1986C317.64 59.1986 319.287 58.8179 320.655 58.0565C322.037 57.2951 323.086 56.3006 323.801 55.0731C324.531 53.83 324.897 52.5015 324.897 51.0874V46.4725C324.648 46.7211 324.166 46.9542 323.451 47.1717C322.752 47.3737 321.952 47.5524 321.051 47.7078C320.15 47.8476 319.272 47.9797 318.417 48.104C317.562 48.2128 316.848 48.306 316.273 48.3837C314.921 48.5547 313.685 48.8421 312.567 49.2461C311.463 49.6501 310.578 50.2328 309.91 50.9942C309.257 51.7401 308.931 52.7345 308.931 53.9776C308.931 55.7024 309.568 57.0076 310.842 57.8933C312.116 58.7635 313.74 59.1986 315.713 59.1986ZM341.148 64V28.1991H347.884V33.8862H348.257C348.909 31.9595 350.059 30.4444 351.706 29.3412C353.369 28.2224 355.249 27.663 357.347 27.663C357.782 27.663 358.295 27.6786 358.885 27.7097C359.491 27.7407 359.965 27.7796 360.307 27.8262V34.4922C360.027 34.4145 359.53 34.3291 358.815 34.2359C358.101 34.1271 357.386 34.0727 356.671 34.0727C355.024 34.0727 353.556 34.4223 352.266 35.1216C350.992 35.8053 349.982 36.7609 349.236 37.9884C348.49 39.2004 348.117 40.5834 348.117 42.1372V64H341.148ZM380.486 64.7225C376.959 64.7225 373.921 63.9689 371.372 62.4617C368.84 60.9389 366.882 58.8023 365.499 56.052C364.131 53.2862 363.448 50.0464 363.448 46.3326C363.448 42.6655 364.131 39.4335 365.499 36.6366C366.882 33.8396 368.809 31.6565 371.279 30.0871C373.765 28.5177 376.671 27.733 379.996 27.733C382.016 27.733 383.974 28.067 385.87 28.7352C387.766 29.4034 389.467 30.4522 390.974 31.8818C392.482 33.3113 393.67 35.1682 394.54 37.4523C395.411 39.721 395.846 42.4791 395.846 45.7266V48.1973H367.387V42.9763H389.017C389.017 41.1428 388.644 39.519 387.898 38.105C387.152 36.6754 386.103 35.5489 384.751 34.7253C383.415 33.9018 381.845 33.49 380.043 33.49C378.085 33.49 376.376 33.9717 374.915 34.9351C373.47 35.8829 372.351 37.126 371.559 38.6643C370.782 40.1871 370.394 41.842 370.394 43.6289V47.7078C370.394 50.1007 370.813 52.1363 371.652 53.8145C372.507 55.4926 373.695 56.7746 375.218 57.6603C376.741 58.5304 378.52 58.9655 380.556 58.9655C381.877 58.9655 383.081 58.779 384.168 58.4061C385.256 58.0176 386.196 57.4427 386.989 56.6813C387.781 55.9199 388.387 54.9799 388.807 53.8611L395.403 55.0498C394.875 56.9921 393.927 58.6936 392.559 60.1542C391.207 61.5993 389.506 62.7258 387.455 63.5338C385.419 64.3263 383.096 64.7225 380.486 64.7225ZM419.008 64.7225C415.481 64.7225 412.443 63.9689 409.895 62.4617C407.362 60.9389 405.404 58.8023 404.021 56.052C402.654 53.2862 401.97 50.0464 401.97 46.3326C401.97 42.6655 402.654 39.4335 404.021 36.6366C405.404 33.8396 407.331 31.6565 409.801 30.0871C412.287 28.5177 415.193 27.733 418.518 27.733C420.538 27.733 422.496 28.067 424.392 28.7352C426.288 29.4034 427.989 30.4522 429.496 31.8818C431.004 33.3113 432.192 35.1682 433.063 37.4523C433.933 39.721 434.368 42.4791 434.368 45.7266V48.1973H405.909V42.9763H427.539C427.539 41.1428 427.166 39.519 426.42 38.105C425.674 36.6754 424.625 35.5489 423.273 34.7253C421.937 33.9018 420.368 33.49 418.565 33.49C416.607 33.49 414.898 33.9717 413.437 34.9351C411.992 35.8829 410.873 37.126 410.081 38.6643C409.304 40.1871 408.916 41.842 408.916 43.6289V47.7078C408.916 50.1007 409.335 52.1363 410.174 53.8145C411.029 55.4926 412.218 56.7746 413.74 57.6603C415.263 58.5304 417.042 58.9655 419.078 58.9655C420.399 58.9655 421.603 58.779 422.691 58.4061C423.778 58.0176 424.718 57.4427 425.511 56.6813C426.303 55.9199 426.909 54.9799 427.329 53.8611L433.925 55.0498C433.397 56.9921 432.449 58.6936 431.081 60.1542C429.73 61.5993 428.028 62.7258 425.977 63.5338C423.941 64.3263 421.618 64.7225 419.008 64.7225ZM442.1 64V28.1991H448.836V33.8862H449.209C449.862 31.9595 451.012 30.4444 452.659 29.3412C454.321 28.2224 456.201 27.663 458.299 27.663C458.734 27.663 459.247 27.6786 459.837 27.7097C460.443 27.7407 460.917 27.7796 461.259 27.8262V34.4922C460.98 34.4145 460.482 34.3291 459.768 34.2359C459.053 34.1271 458.338 34.0727 457.623 34.0727C455.976 34.0727 454.508 34.4223 453.218 35.1216C451.944 35.8053 450.934 36.7609 450.188 37.9884C449.442 39.2004 449.069 40.5834 449.069 42.1372V64H442.1Z" fill="black"/>
</svg>
